<svg xmlns="http://www.w3.org/2000/svg"><symbol id="mecha-stilts" viewBox="0 0 256 256"><path d="M129.5 0l110.9 64v128l-110.9 64-110.8-64V64L129.5 0z"/><path fill="#fff" d="M65.2 175.3a2.3 2.3 0 0 1-2.1-2.1 2.2 2.2 0 0 1 2.1-2.1h10.5v-13.3H65.2a1.9 1.9 0 0 1-2.1-2.1v-41.4a2 2 0 0 1 2.1-2.1h13.9c1-29.8 23.3-46.2 50.4-46.2s49.4 16.4 50.5 46.2h13.8a2 2 0 0 1 2.1 2.1v41.4a1.9 1.9 0 0 1-2.1 2.1h-10.5v13.3h10.5a2.2 2.2 0 0 1 2.1 2.1 2.3 2.3 0 0 1-2.1 2.1zm2.1-58.9v37.2h124.4v-37.2zm12.6 41.4v13.3h13.5v-13.3zm3.4-45.6h92.5c-1.1-27.1-21.7-42-46.3-42s-45.2 14.9-46.2 42zm14.3 45.6v13.3h21v-13.3zm25.2 0v13.3h13.4v-13.3zm57-14.2h-51.3a2.2 2.2 0 0 1 0-4.3h51.3a2.2 2.2 0 0 1 0 4.3zm-39.4 14.2v13.3h21.1v-13.3zm25.3 0v13.3h13.4v-13.3z"/></symbol><symbol id="super-domes" viewBox="0 0 256 256"><path d="M127.5 0l110.9 64v128l-110.9 64-110.8-64V64L127.5 0z"/><path fill="#fff" d="M66.8 175.3a1.9 1.9 0 0 1-2.1-2.1v-25.4H36.9a2.3 2.3 0 0 1-2.1-2.1 2.3 2.3 0 0 1 2.1-2.1h15.8v-13.7a1.9 1.9 0 0 1 2.1-2.1H63a66.6 66.6 0 0 1 64.3-51.1q.3-.3.9 0c31.1.2 56.9 22.1 63.9 51.1h8.2a2 2 0 0 1 2.1 2.1v13.7h15.8a2.3 2.3 0 0 1 2.1 2.1 2.3 2.3 0 0 1-2.1 2.1h-27.8v25.4a1.9 1.9 0 0 1-2.1 2.1zM56.9 132v11.6h141.3V132zm66.4-50.9c-26.9 1.7-49.4 21.2-55.9 46.7h22.5zm-54.4 66.7v23.3h56.5v-23.3zm56.5-62.5l-30.2 42.5h30.2zm4.2-4.4v46.9h58.1a62.6 62.6 0 0 0-58.1-46.9zm0 66.9v23.3h9.5v-23.3zm13.7 0v23.3h42.9v-23.3z"/></symbol><symbol id="space-bubbles" viewBox="0 0 256 256"><path d="M128.5 0l110.8 64v128l-110.8 64-110.9-64V64L128.5 0z"/><path fill="#fff" d="M65.8 179.9L61 173a1.9 1.9 0 0 1 .2-2.5l17.4-20.6H70a2 2 0 0 1-2.1-2.1v-15.2a2 2 0 0 1 2.1-2.1h12.2a57.3 57.3 0 0 1-2.3-16 49.9 49.9 0 0 1 49.8-49.6c27.1 0 49.6 22.5 49.6 49.6a50.8 50.8 0 0 1-2.3 16h12.2a2 2 0 0 1 2.1 2.1v15.2a2 2 0 0 1-2.1 2.1h-10.7l17.2 20.6a2.3 2.3 0 0 1 0 2.5l-4.8 6.9a2.2 2.2 0 0 1-2.7.7l-10.1-5.3H78.6l-10.1 5.3a2.2 2.2 0 0 1-2.7-.7zm32-30H83.9l-18.5 21.8 2.9 4.2 35.6-18.7zm-25.7-15.2v11h115v-11zm14.5-4.2h86a50.1 50.1 0 0 0 2.5-16 45.5 45.5 0 0 0-91 0c0 5.5.4 11.2 2.5 16zm20.2 30.1l-20 10.5h28.6zm-3.6-10.7l17.7 21.2H136l17.7-21.2zm46.9 10.7l-8.6 10.5h28.6zm22.9-10.7h-13.9l-6.3 7.3 35.8 18.7 2.9-4z"/></symbol></svg>